PathFileType	4	(X/Y/Z)	Trial61_Right_Ankle_markers_cropped.trc																																																																			
DataRate	CameraRate	NumFrames	NumMarkers	Units	OrigDataRate	OrigDataStartFrame	OrigNumFrames																																																															
200	200	9	23	m	200	151	404																																																															
Frame#	Time	R_ASIS			L_ASIS			Sacral			L_Thigh_Superior			L_Thigh_Inferior			L_Thigh_Lateral			L_Shank_Superior			L_Shank_Inferior			L_Shank_Lateral			L_Heel			L_Midfoot_Superior			L_Midfoot_Lateral			L_Toe			R_Thigh_Superior			R_Thigh_Inferior			R_Thigh_Lateral			R_Shank_Superior			R_Shank_Lateral			R_Shank_Inferior			R_Heel			R_Midfoot_Superior			R_Midfoot_Lateral			R_Toe		
		X1	Y1	Z1	X2	Y2	Z2	X3	Y3	Z3	X4	Y4	Z4	X5	Y5	Z5	X6	Y6	Z6	X7	Y7	Z7	X8	Y8	Z8	X9	Y9	Z9	X10	Y10	Z10	X11	Y11	Z11	X12	Y12	Z12	X13	Y13	Z13	X14	Y14	Z14	X15	Y15	Z15	X16	Y16	Z16	X17	Y17	Z17	X18	Y18	Z18	X19	Y19	Z19	X20	Y20	Z20	X21	Y21	Z21	X22	Y22	Z22	X23	Y23	Z23
																																																																						
152	0.755	-0.590013318	0.933235139	-0.38088739	-0.553291768	0.952971828	-0.656458017	-0.794238737	0.97685447	-0.550274696	-0.44878935	0.803730938	-0.623914994	-0.352121806	0.642033854	-0.637937109	-0.455707652	0.691496415	-0.720724217	-0.301945122	0.515981155	-0.661347297	-0.22153625	0.304548442	-0.680392789	-0.316776353	0.386224289	-0.743612913	-0.278276363	0.125130039	-0.702612012	-0.122280331	0.202686978	-0.662464474	-0.169750292	0.127483936	-0.722255288	-0.001993444	0.163257882	-0.598872365	-0.539134555	0.731824083	-0.42645085	-0.542696992	0.567236199	-0.467448455	-0.63096811	0.611176112	-0.395782224	-0.578565614	0.388086996	-0.481457983	-0.619939946	0.193862233	-0.510867961	-0.66376891	0.282378894	-0.44058053	-0.759286605	0.036610842	-0.568338226	-0.589868988	0.088718939	-0.517309304	-0.682519463	0.029581485	-0.488213558	-0.472984848	0.032349133	-0.481682182
153	0.760	-0.58972586	0.93333022	-0.381533003	-0.553184376	0.952899634	-0.657098614	-0.794028323	0.976782592	-0.550794529	-0.448417439	0.80333382	-0.624725519	-0.352015887	0.641404813	-0.638146922	-0.455310048	0.690892227	-0.721142039	-0.301992644	0.515717886	-0.661322292	-0.221728173	0.304228386	-0.680071008	-0.316834887	0.385886452	-0.743475956	-0.279483413	0.125954799	-0.70200891	-0.122257265	0.201040959	-0.661896713	-0.170900709	0.126674478	-0.721721005	-0.002542793	0.159858948	-0.598537386	-0.538907607	0.731860938	-0.427031831	-0.542575977	0.567250056	-0.467965314	-0.630750497	0.611242877	-0.396229484	-0.578483039	0.388078362	-0.481835669	-0.619873968	0.193822608	-0.511059592	-0.663668287	0.282414607	-0.441002287	-0.759290639	0.036599182	-0.568348715	-0.589890823	0.08872057	-0.517333599	-0.682534713	0.029588836	-0.48821168	-0.473000907	0.032358753	-0.48165854
154	0.765	-0.589428653	0.933416326	-0.382173006	-0.553081974	0.952809882	-0.657738439	-0.793813093	0.976699744	-0.55129788	-0.448148222	0.802951732	-0.625523441	-0.351941379	0.640820067	-0.638396045	-0.454873807	0.69031946	-0.721567434	-0.302091492	0.515427466	-0.661367697	-0.222010273	0.303878664	-0.679840699	-0.317028261	0.385507689	-0.743376	-0.280903668	0.126845021	-0.701288459	-0.122290204	0.199265267	-0.661642464	-0.172347495	0.125841289	-0.721385092	-0.00305826	0.156151129	-0.59891071	-0.538666564	0.731897178	-0.427602998	-0.542437309	0.567260869	-0.468462465	-0.630512936	0.611302425	-0.396660262	-0.578379191	0.388063602	-0.4822084	-0.619801514	0.193784632	-0.511245657	-0.663549659	0.282445589	-0.441406188	-0.759290999	0.036588806	-0.568359634	-0.589909132	0.088720656	-0.51736001	-0.682545119	0.02959555	-0.488210548	-0.473011891	0.032365448	-0.481632557
155	0.770	-0.58912503	0.933492841	-0.382807006	-0.552986623	0.952702113	-0.658375637	-0.79359834	0.976607771	-0.551786052	-0.447977516	0.802587996	-0.626296609	-0.351888698	0.640286587	-0.638665835	-0.454399558	0.689783429	-0.721987251	-0.30222819	0.515109461	-0.661471478	-0.222383965	0.303489888	-0.679694022	-0.317350596	0.385090623	-0.74330164	-0.2825267	0.127776004	-0.700433981	-0.122403753	0.197371785	-0.661722962	-0.174104305	0.125000335	-0.721258816	-0.003556065	0.15215997	-0.600047294	-0.538416708	0.731933376	-0.428161402	-0.542283427	0.567268639	-0.468941014	-0.63025903	0.611355935	-0.397073334	-0.578255299	0.388041679	-0.482573683	-0.61972584	0.193749181	-0.511423008	-0.663417194	0.28247371	-0.441779175	-0.759289205	0.036579814	-0.568370875	-0.589924306	0.088719051	-0.517388056	-0.682551754	0.029601882	-0.488210083	-0.473017796	0.032366602	-0.481606928
156	0.775	-0.588818468	0.933560814	-0.383434388	-0.552895972	0.952576405	-0.659007115	-0.793387887	0.976509014	-0.552261855	-0.447891622	0.802242903	-0.627031482	-0.351847404	0.639805206	-0.638938829	-0.453893829	0.689283448	-0.722387592	-0.302390115	0.514762863	-0.661620464	-0.22284806	0.3030519	-0.679620949	-0.317793714	0.384636392	-0.743239485	-0.284331219	0.128724036	-0.699420303	-0.122620066	0.195367265	-0.662158009	-0.176182933	0.124168262	-0.721351113	-0.004048158	0.147909986	-0.602009765	-0.538164221	0.73196967	-0.428702509	-0.542117992	0.567273381	-0.469400418	-0.629995139	0.611405101	-0.397467112	-0.578114543	0.388011365	-0.482927517	-0.619650339	0.193717084	-0.51158839	-0.66327673	0.282500549	-0.442111938	-0.759286451	0.036572157	-0.568382174	-0.589936548	0.088715543	-0.517417188	-0.682555719	0.029608061	-0.488210125	-0.473019078	0.032361126	-0.481583575
157	0.780	-0.588513811	0.933623187	-0.384052169	-0.552802911	0.952433922	-0.659629516	-0.793183559	0.976405751	-0.552728885	-0.447873468	0.801913037	-0.627714084	-0.351807451	0.639372228	-0.639201162	-0.453369386	0.688814251	-0.722756432	-0.302565815	0.514387034	-0.661802569	-0.223397834	0.302555884	-0.67961124	-0.318347058	0.384145662	-0.743176717	-0.286288871	0.129673041	-0.698219818	-0.122953907	0.193254373	-0.662963153	-0.178591049	0.123360022	-0.72166579	-0.004543417	0.143418223	-0.604853729	-0.537914812	0.732005578	-0.429221082	-0.541944464	0.567275699	-0.469836468	-0.629729395	0.611451986	-0.397839804	-0.5779618	0.387972136	-0.483264853	-0.619577957	0.193689032	-0.511738668	-0.66313487	0.282527365	-0.442399313	-0.759283519	0.036565675	-0.568393075	-0.589945996	0.088710115	-0.51744653	-0.682557946	0.029614144	-0.488210557	-0.473016951	0.032350127	-0.481563221
158	0.785	-0.588217477	0.933684269	-0.384654191	-0.552697545	0.952276786	-0.660239025	-0.792984922	0.976299543	-0.553190916	-0.447907068	0.801592074	-0.628331501	-0.351759622	0.638981836	-0.639443911	-0.452843426	0.688368104	-0.723085125	-0.302744539	0.513982179	-0.662009473	-0.224025843	0.301995333	-0.679657696	-0.31899938	0.38361921	-0.743103583	-0.288370086	0.130615122	-0.696814241	-0.123413067	0.191036019	-0.664144936	-0.181327469	0.12258629	-0.722198367	-0.005053581	0.138699598	-0.608604366	-0.537672802	0.732040037	-0.429711557	-0.541765452	0.567276919	-0.470241462	-0.629470319	0.611498778	-0.398189636	-0.57780291	0.387924925	-0.483579988	-0.619510865	0.193665492	-0.511871141	-0.662997944	0.282555135	-0.442639624	-0.759280793	0.036560182	-0.568402959	-0.589952836	0.088703145	-0.517474722	-0.682559005	0.02961999	-0.488211316	-0.473013301	0.032336539	-0.481545749
159	0.790	-0.587935981	0.933748626	-0.385232658	-0.552571392	0.95210704	-0.660830061	-0.792789979	0.976190979	-0.553651163	-0.447979739	0.801272669	-0.628873974	-0.351695289	0.638628442	-0.639663951	-0.452334778	0.687937061	-0.723369693	-0.302915604	0.51354933	-0.662238671	-0.224723783	0.301366122	-0.679759161	-0.319740858	0.383058326	-0.743015141	-0.290548762	0.131545168	-0.695207925	-0.124003005	0.18872002	-0.665693592	-0.184376083	0.12185117	-0.722933553	-0.005601558	0.133779801	-0.613228907	-0.537440926	0.732071951	-0.430167911	-0.541582978	0.56727872	-0.470606285	-0.629225354	0.611547251	-0.398514949	-0.57764366	0.387872287	-0.483867025	-0.619450378	0.193646597	-0.511983991	-0.662871051	0.282584472	-0.442833842	-0.759278357	0.036555573	-0.568411165	-0.589957313	0.088695274	-0.517500174	-0.682559051	0.029625318	-0.488212389	-0.473010203	0.032323838	-0.481531028
160	0.795	-0.587674294	0.933820148	-0.385780311	-0.552421301	0.951925398	-0.661394558	-0.792596354	0.976079839	-0.554111394	-0.448082527	0.800948226	-0.62933703	-0.351605979	0.638308047	-0.639864287	-0.451861907	0.687515104	-0.723612173	-0.303068381	0.513090072	-0.662493451	-0.225484088	0.300666461	-0.679920767	-0.320563846	0.382465234	-0.742911657	-0.292803146	0.132453993	-0.693436727	-0.124731304	0.18632202	-0.667574632	-0.1877006	0.121150851	-0.723843499	-0.006227371	0.128706318	-0.618614098	-0.537220546	0.732101129	-0.430583648	-0.54139902	0.567282522	-0.470922986	-0.628999723	0.611598212	-0.39881424	-0.577488903	0.387817863	-0.484120721	-0.619397017	0.193632112	-0.512076596	-0.66275757	0.282615554	-0.442984863	-0.759276141	0.036551859	-0.568417179	-0.589959669	0.088687156	-0.517521525	-0.682558001	0.029629843	-0.48821376	-0.473009201	0.032314409	-0.481519584
